<?xml version="1.0" standalone="no"?>
<!DOCTYPE svg PUBLIC "-//W3C//DTD SVG 20010904//EN"
 "http://www.w3.org/TR/2001/REC-SVG-20010904/DTD/svg10.dtd">
<svg version="1.0" xmlns="http://www.w3.org/2000/svg"
 width="1512.000000pt" height="848.000000pt" viewBox="0 0 1512.000000 848.000000"
 preserveAspectRatio="xMidYMid meet">
<metadata>
Created by potrace 1.15, written by Peter Selinger 2001-2017
</metadata>
<g transform="translate(0.000000,848.000000) scale(0.100000,-0.100000)"
fill="#000000" stroke="none">
<path d="M4835 7359 c-846 -92 -1529 -774 -1780 -1779 -70 -281 -98 -506 -98
-775 0 -217 16 -350 59 -514 174 -663 702 -1017 1474 -988 335 13 625 93 965
267 235 120 315 183 358 279 25 56 268 1416 270 1513 2 77 -16 111 -74 140
-31 17 -86 18 -711 18 l-676 0 -10 -47 c-6 -27 -27 -144 -47 -261 l-37 -213
29 -37 c29 -36 32 -37 114 -44 46 -3 212 -6 368 -7 l283 -1 -6 -23 c-3 -12
-12 -67 -21 -122 -9 -55 -38 -226 -66 -380 -27 -154 -49 -283 -49 -287 0 -11
-152 -81 -254 -117 -279 -98 -652 -76 -863 51 -259 156 -377 426 -376 863 1
284 48 558 149 864 146 445 370 745 669 894 280 140 672 127 861 -28 98 -81
153 -204 161 -365 5 -104 6 -105 41 -142 l36 -38 312 0 312 0 8 78 c35 345
-45 627 -240 839 -94 101 -179 164 -311 229 -186 90 -368 131 -615 139 -80 2
-185 -1 -235 -6z"/>
<path d="M10085 7359 c-846 -92 -1528 -774 -1779 -1779 -116 -463 -133 -927
-45 -1272 130 -516 480 -857 990 -966 297 -64 677 -51 974 34 132 37 332 118
480 194 237 121 315 181 358 278 24 57 268 1416 270 1514 2 77 -16 111 -74
140 -31 17 -86 18 -711 18 -636 0 -677 -1 -682 -17 -2 -10 -23 -127 -47 -261
l-42 -243 30 -37 c29 -36 32 -37 114 -44 46 -3 212 -6 368 -7 l283 -1 -6 -23
c-3 -12 -12 -67 -21 -122 -9 -55 -38 -226 -66 -380 -27 -154 -49 -283 -49
-287 0 -11 -152 -81 -254 -117 -279 -98 -652 -76 -863 51 -259 156 -377 426
-376 863 2 469 157 1025 378 1355 258 384 628 556 1041 485 155 -27 263 -91
335 -197 58 -85 80 -155 86 -278 5 -104 6 -105 41 -142 l36 -38 312 0 312 0 8
78 c35 345 -45 627 -240 839 -94 101 -179 164 -311 229 -186 90 -368 131 -615
139 -80 2 -185 -1 -235 -6z"/>
<path d="M6600 3995 c0 -3 -27 -156 -60 -341 -32 -186 -56 -342 -52 -349 4 -7
19 -26 34 -44 l27 -31 365 0 366 0 5 23 c3 12 30 167 61 345 l55 323 -31 39
-32 40 -369 0 c-203 0 -369 -2 -369 -5z"/>
<path d="M5743 2422 c-9 -6 -13 -59 -15 -187 l-3 -180 -37 -3 -38 -3 0 168 c0
118 -4 173 -12 181 -7 7 -39 12 -73 12 -34 0 -66 -5 -73 -12 -9 -9 -12 -101
-12 -352 0 -228 -3 -337 -10 -330 -7 7 -39 6 -98 -2 -48 -7 -115 -13 -149 -13
l-63 -1 0 250 0 250 119 0 c140 0 143 2 139 87 l-3 58 -210 0 -210 0 -3 -392
c-2 -392 -2 -392 19 -404 26 -13 284 -4 396 15 l72 12 3 -125 3 -126 68 -3
c42 -2 74 2 83 9 11 9 14 61 14 280 l0 269 40 0 40 0 2 -302 3 -303 68 -3 c42
-2 74 2 83 9 12 10 14 102 14 570 0 542 -1 559 -19 569 -23 12 -120 13 -138 2z"/>
<path d="M7783 2420 c-50 -12 -96 -43 -127 -87 -51 -74 -36 -177 34 -237 102
-85 322 -68 397 31 35 46 44 134 18 183 -50 96 -185 143 -322 110z m152 -145
c32 -31 32 -58 -1 -84 -40 -31 -112 -24 -136 13 -44 66 79 130 137 71z"/>
<path d="M8400 2416 c-15 -15 -13 -679 2 -694 9 -9 9 -12 0 -12 -7 0 -12 -16
-12 -40 l0 -40 -230 0 -230 0 0 39 c0 22 -5 41 -12 44 -11 4 -105 3 -145 -2
-10 -1 -13 -49 -13 -206 0 -192 1 -205 19 -215 27 -14 735 -14 762 0 18 10 19
23 19 215 0 153 -3 205 -12 205 -9 0 -9 3 0 12 9 9 12 102 12 355 l0 343 -22
5 c-35 7 -128 1 -138 -9z m-12 -958 l-3 -33 -227 -3 -228 -2 0 35 0 35 231 0
230 0 -3 -32z"/>
<path d="M3091 2407 c-8 -11 -10 -160 -9 -573 l3 -559 85 0 85 0 0 570 0 570
-76 3 c-56 2 -79 -1 -88 -11z"/>
<path d="M4215 2408 c-3 -7 -4 -200 -3 -428 l3 -415 80 0 80 0 0 425 0 425
-78 3 c-56 2 -79 -1 -82 -10z"/>
<path d="M6855 2408 c-3 -7 -4 -265 -3 -573 l3 -560 85 0 85 0 3 559 c1 404
-1 563 -9 572 -15 19 -158 20 -164 2z"/>
<path d="M9887 2413 c-4 -3 -7 -77 -7 -164 l0 -158 -107 -3 -108 -3 0 -75 0
-75 107 -3 108 -3 2 -327 3 -327 85 0 85 0 3 559 c1 404 -1 563 -9 572 -12 15
-149 20 -162 7z"/>
<path d="M11001 2407 c-8 -11 -10 -160 -9 -573 l3 -559 85 0 85 0 0 570 0 570
-76 3 c-56 2 -79 -1 -88 -11z"/>
<path d="M8180 2390 c-6 -11 -10 -26 -9 -33 1 -6 1 -78 0 -158 l-1 -146 -52
-8 c-29 -4 -161 -11 -293 -14 l-240 -6 0 -65 0 -65 92 -3 92 -3 3 -77 3 -77
85 0 85 0 3 76 c3 70 5 77 25 83 12 3 24 6 27 6 3 0 5 -28 5 -62 l0 -63 81 -3
c75 -3 82 -5 92 -27 11 -23 17 -25 80 -25 40 0 73 5 80 12 9 9 12 97 12 333 0
236 -3 324 -12 333 -7 7 -40 12 -80 12 -57 0 -69 -3 -78 -20z"/>
<path d="M9352 2368 c-8 -8 -12 -61 -12 -173 0 -185 -17 -274 -72 -376 -34
-65 -115 -153 -178 -195 -22 -15 -40 -34 -40 -43 1 -9 28 -37 62 -63 46 -37
64 -45 77 -38 55 29 197 183 233 253 l14 28 37 -54 c39 -56 138 -156 192 -194
l30 -21 58 53 c31 28 57 57 57 63 0 6 -22 26 -48 45 -69 51 -146 136 -175 194
-46 90 -57 156 -57 340 0 118 -4 173 -12 181 -7 7 -41 12 -83 12 -42 0 -76 -5
-83 -12z"/>
<path d="M11757 2373 c-4 -3 -7 -39 -7 -78 0 -95 -21 -160 -74 -233 -51 -69
-163 -149 -257 -183 -34 -12 -63 -28 -66 -35 -3 -7 17 -38 44 -69 56 -64 63
-65 168 -15 88 42 177 111 231 180 l46 59 39 -50 c65 -81 201 -179 303 -216
l48 -18 49 53 c54 59 60 81 27 90 -69 18 -186 89 -248 151 -87 88 -114 143
-118 246 -5 132 1 125 -96 125 -45 0 -86 -3 -89 -7z"/>
<path d="M3474 2356 c-3 -7 -4 -40 -2 -72 l3 -59 104 -3 104 -3 -6 -56 c-12
-114 -95 -223 -221 -289 -34 -17 -56 -36 -56 -46 0 -17 97 -108 115 -108 23 0
144 88 200 146 l60 61 67 -61 c36 -34 93 -76 126 -94 l60 -32 46 54 c25 30 46
61 46 70 0 9 -23 26 -54 41 -113 54 -189 151 -202 258 l-7 57 106 0 c86 0 106
3 111 16 10 27 6 110 -6 122 -19 19 -587 17 -594 -2z"/>
<path d="M10287 2354 c-11 -11 -8 -787 3 -804 8 -13 49 -15 253 -18 150 -2
254 1 270 7 l27 11 -2 402 -3 403 -80 0 -80 0 -3 -127 -3 -128 -109 0 -109 0
-3 128 -3 127 -75 3 c-42 1 -79 0 -83 -4z m383 -539 l0 -125 -110 0 -110 0 0
125 0 125 110 0 110 0 0 -125z"/>
<path d="M2337 2343 c-12 -11 -8 -118 5 -131 8 -8 48 -12 115 -12 l103 0 0
-65 c0 -204 -87 -384 -239 -495 -34 -25 -60 -51 -59 -58 2 -8 31 -36 64 -63
l62 -49 48 38 c64 50 150 145 187 205 l29 48 26 -38 c33 -51 126 -146 185
-190 53 -39 49 -40 124 30 24 23 39 45 36 54 -3 7 -24 27 -48 43 -147 101
-215 233 -230 447 l-6 92 113 3 113 3 0 70 0 70 -311 3 c-171 1 -313 -1 -317
-5z"/>
<path d="M6102 2338 c-12 -12 -17 -95 -6 -122 4 -11 19 -16 50 -16 l44 0 0
-250 0 -249 -57 -3 -58 -3 -3 -72 c-3 -72 -3 -72 25 -79 29 -8 630 12 696 22
l38 6 -3 72 -3 71 -84 -4 -84 -3 6 193 c4 107 7 217 7 246 l0 52 48 3 47 3 0
70 0 70 -325 3 c-245 2 -329 -1 -338 -10z m388 -388 l0 -250 -60 0 -60 0 0 58
c0 31 -3 136 -7 233 -3 97 -3 184 0 193 5 12 20 16 67 16 l60 0 0 -250z"/>
<path d="M3607 1673 c-4 -3 -7 -86 -7 -183 0 -138 3 -180 14 -189 9 -8 123
-10 402 -9 l389 3 0 70 0 70 -312 3 -313 2 0 108 c0 71 -4 112 -12 120 -13 13
-149 17 -161 5z"/>
<path d="M11314 1546 c-3 -7 -4 -42 -2 -77 l3 -64 519 -3 c375 -1 523 1 532 9
18 14 19 120 2 137 -19 19 -1047 17 -1054 -2z"/>
</g>
</svg>
